# xmcd
#
# Track frame offsets:
# 150
# 10649
# 38106
# 51491
# 69693
# 82026
# 101015
# 132299
# 160648
# 173245
# 187889
# 210661
# 238100
# 268764
# 285661
#
# Disc length: 3951 seconds
#
#
# Revision: 1
# Processed by: cddbd v1.5.2PL0 Copyright (c) Steve Scherf et al.
# Submitted via: FreeRIP 2.945 
#
DISCID=d20f6d0f
DTITLE=Varios - Jazz para hacer el amor
DYEAR=2000
DGENRE=Jazz
TTITLE0=Chet Baker - My funny Valentine
TTITLE1=Dexter Gordon - Don`t Explain
TTITLE2=Julie London - Cry me a River
TTITLE3=Miles Davis - It never entered my mind
TTITLE4=Nancy Wilson and Cannonball Aderley
TTITLE5=Lawrence Marable Quarter feat, James Clay - Loverman
TTITLE6=Johnny Hartman The Nearness of You
TTITLE7=Diane Reeves - You Taught my Heart to Sing
TTITLE8=Coleman Hawkins - Autum Leaves
TTITLE9=Nat King Cole - Stardust
TTITLE10=Bill Perkins - Richie Kamura - Sweet and lovely
TTITLE11=Cassandra Wilson -You don't know what Love is
TTITLE12=Dexter Gordon - Until th Real Thing comes Along
TTITLE13=Chet Baker - Lets get Lost
TTITLE14=Bud Shank with the Len Mercer String - Smoke gets in your eyes
EXTD=YEAR: 2000
EXTT0=
EXTT1=
EXTT2=
EXTT3=
EXTT4=
EXTT5=
EXTT6=
EXTT7=
EXTT8=
EXTT9=
EXTT10=
EXTT11=
EXTT12=
EXTT13=
EXTT14=
PLAYORDER=
